<?xml version="1.0" encoding="utf-8"?>
<!-- Generator: Adobe Illustrator 22.1.0, SVG Export Plug-In . SVG Version: 6.00 Build 0)  -->
<svg version="1.1" id="Layer_1" xmlns="http://www.w3.org/2000/svg" xmlns:xlink="http://www.w3.org/1999/xlink" x="0px" y="0px"
	 viewBox="0 0 144 72" style="enable-background:new 0 0 144 72;" xml:space="preserve">
<style type="text/css">
	.st0{fill:#FFFFFF;}
	.st1{fill:none;}
	.st2{fill:#FFEFDD;}
	.st3{fill:#905501;}
	.st4{fill:#2C4360;}
	.st5{fill:#2D4260;}
</style>
<path class="st4" d="M125.8,30.9h0.2V31L125.8,30.9z M121.9,30.9h3c-0.2,0.5-0.3,0.8-0.4,1c-0.5,0.9-1.8,2.7-4.6,2.7
	c-0.6,0-1.8,0-3-1c-1.2-1-2.3-2.8-2.3-6.3c0-0.6-0.1-4.3,2.4-6.2c0.5-0.4,1.4-0.9,2.9-0.9c3.2,0,4.5,2.6,4.9,3.5
	c0.1,0.3,0.3,0.5,0.4,0.8l6.7-3.3c-0.5-1-0.9-1.6-1.7-2.4c-1.4-1.6-4.9-4.6-10.7-4.6c-2.2,0-7.1,0.4-10.6,5.3
	c-2.4,3.4-2.6,6.9-2.6,8.5c0,1.8,0.3,6.9,4.6,10.4c2.5,2.1,5.4,2.9,8.6,2.9c5.1,0,8.2-2.1,9.9-3.8v3.1h4.5V27.3h-12V30.9z"/>
<path class="st4" d="M103.6,24.1H93.3c0,0.3-3.7,16.2-3.7,16.2L86,24.1H75.7l7.9,22.8c0.4,1.1,0.8,2.2,0.8,2.5
	c0,0.9-0.7,1.2-2.1,1.2c-1,0-1.9-0.1-2.8-0.1v7.1l2.7,0.3c0.8,0.1,1.7,0,2.5,0c2.4,0,4.4,0,6.3-1.5c1.9-1.5,2.7-3.8,3.5-6
	L103.6,24.1z M70.7,33.1h-7.2c0.1-0.5,0.3-2.5,2.2-3.4c0.3-0.1,0.8-0.3,1.5-0.4c0.8,0,2.6,0.3,3.3,2.4
	C70.6,32.3,70.6,32.8,70.7,33.1 M80.7,38.3c0-2.3,0-4.4-0.7-6.5c-0.5-1.7-1.4-3.3-2.6-4.6C73.8,23.3,68.7,23,67,23
	c-1.4,0-6.3,0.2-9.9,3.6c-1.4,1.4-3.8,4.6-3.8,9.7c0,5.4,2.7,10.4,7.9,12.5C63,49.7,65,50,67.1,50c3.6,0,6.1-1,7.3-1.6
	c0.9-0.4,2.8-1.5,4.6-3.6c0.7-0.8,1-1.3,1.2-1.7l-8.1-3.4c-0.2,0.3-0.7,1.4-1.7,2.3c-0.5,0.4-1.3,1-2.8,1c-2.6,0-3.6-1.8-3.9-2.7
	c-0.2-0.8-0.2-1.9-0.2-1.9H80.7z M45.3,36.3c0,2.8-0.7,4.7-1.6,5.5c-0.8,0.8-1.8,1.1-3,1.1c-0.9,0-1.6-0.2-1.9-0.3
	c-0.6-0.2-1.1-0.7-1.5-1.2c-0.6-0.9-1.2-2.5-1.2-5c0-2.5,0.7-4.2,1.4-5C38,30.9,39,30,40.7,30c0.3,0,0.9,0,1.6,0.2
	C44.1,30.9,45.3,32.6,45.3,36.3 M55.3,36.6c0-3.7-1.4-7.7-4.2-10.2C47.4,23.2,42.3,23,41,23c-6,0-9.6,2.4-11.3,4.3
	c-2.4,2.5-3.4,6-3.4,9.4c0,5.7,2.8,8.8,4.6,10.3c3.6,2.9,8.1,2.9,9.6,2.9c6.2,0,9.9-2.5,11.6-4.4C55,42.2,55.3,37.9,55.3,36.6
	 M27.9,39.5V15.1H17.2V37c0,1.1-0.1,1.6-0.4,2.2c-0.5,1.2-1.6,1.7-4,1.7c-1.4,0-2-0.1-2.7-0.3V49h7.2c3.4,0,4.9-0.3,6.5-1
	c1.3-0.6,3.3-1.8,3.9-5.2C27.9,41.6,27.9,39.7,27.9,39.5"/>
<rect x="10.1" y="14.1" class="st1" width="123.8" height="43.9"/>
</svg>
